<svg
      width="594"
      height="571"
      viewBox="0 0 594 571"
      fill="none"
      xmlns="http://www.w3.org/2000/svg"
    >
      <g filter="url(#filter0_ii_11_2057)">
        <path
          d="M467.512 63.4304C511.612 103.33 540.313 156.53 562.713 214.28C584.763 272.38 600.512 334.68 590.012 395.58C579.512 456.13 543.113 515.28 491.312 544.33C439.512 573.03 371.962 571.63 306.512 568.48C241.412 565.33 178.062 561.13 129.412 531.03C81.1125 501.28 46.8125 445.98 24.0625 384.73C1.3125 323.83 -10.2375 256.63 11.8125 204.48C33.5125 151.98 89.1625 113.83 143.412 77.0804C198.012 40.3304 251.212 4.63035 307.562 0.430353C363.913 -3.76965 423.412 23.1804 467.512 63.4304Z"
          fill="#FF8578"
        />
      </g>
      <defs>
        <filter
          id="filter0_ii_11_2057"
          x="-5"
          y="-5"
          width="598.343"
          height="580.092"
          filterUnits="userSpaceOnUse"
          color-interpolation-filters="sRGB"
        >
          <feFlood flood-opacity="0" result="BackgroundImageFix" />
          <feBlend
            mode="normal"
            in="SourceGraphic"
            in2="BackgroundImageFix"
            result="shape"
          />
          <feColorMatrix
            in="SourceAlpha"
            type="matrix"
            values="0 0 0 0 0 0 0 0 0 0 0 0 0 0 0 0 0 0 127 0"
            result="hardAlpha"
          />
          <feOffset dy="5" />
          <feGaussianBlur stdDeviation="25" />
          <feComposite in2="hardAlpha" operator="arithmetic" k2="-1" k3="1" />
          <feColorMatrix
            type="matrix"
            values="0 0 0 0 0.113725 0 0 0 0 0.14902 0 0 0 0 0.176471 0 0 0 0.2 0"
          />
          <feBlend
            mode="normal"
            in2="shape"
            result="effect1_innerShadow_11_2057"
          />
          <feColorMatrix
            in="SourceAlpha"
            type="matrix"
            values="0 0 0 0 0 0 0 0 0 0 0 0 0 0 0 0 0 0 127 0"
            result="hardAlpha"
          />
          <feOffset dx="-5" dy="-5" />
          <feGaussianBlur stdDeviation="25" />
          <feComposite in2="hardAlpha" operator="arithmetic" k2="-1" k3="1" />
          <feColorMatrix
            type="matrix"
            values="0 0 0 0 0 0 0 0 0 0 0 0 0 0 0 0 0 0 0.2 0"
          />
          <feBlend
            mode="normal"
            in2="effect1_innerShadow_11_2057"
            result="effect2_innerShadow_11_2057"
          />
        </filter>
      </defs>
    </svg>